<svg xmlns="http://www.w3.org/2000/svg" viewBox="0 0 1200 600" fill="none">
  <g opacity="0.95">
    <ellipse cx="605" cy="330" rx="220" ry="72" fill="url(#bodyGlow)"/>
    <path d="M430 320L560 290H690L810 320L690 350H560L430 320Z" fill="#D8D9E0"/>
    <path d="M525 300H680L730 320L680 340H525L485 320L525 300Z" fill="#2A2F3A"/>
    <path d="M600 270L650 285H560L600 270Z" fill="#E6E7EE"/>
    <circle cx="578" cy="322" r="16" fill="#FF006E"/>
    <rect x="470" y="314" width="22" height="12" rx="6" fill="#7B849A"/>
    <rect x="812" y="314" width="22" height="12" rx="6" fill="#7B849A"/>

    <g opacity="0.9">
      <line x1="390" y1="240" x2="500" y2="300" stroke="#A8B2C8" stroke-width="8"/>
      <line x1="810" y1="300" x2="920" y2="240" stroke="#A8B2C8" stroke-width="8"/>
      <line x1="390" y1="400" x2="500" y2="340" stroke="#A8B2C8" stroke-width="8"/>
      <line x1="810" y1="340" x2="920" y2="400" stroke="#A8B2C8" stroke-width="8"/>
    </g>

    <g>
      <g transform="translate(360 220)">
        <circle cx="0" cy="0" r="42" stroke="#E5E7EF" stroke-width="6"/>
        <line x1="-55" y1="0" x2="55" y2="0" stroke="#E5E7EF" stroke-width="5"/>
        <line x1="0" y1="-55" x2="0" y2="55" stroke="#E5E7EF" stroke-width="5"/>
      </g>
      <g transform="translate(940 220)">
        <circle cx="0" cy="0" r="42" stroke="#E5E7EF" stroke-width="6"/>
        <line x1="-55" y1="0" x2="55" y2="0" stroke="#E5E7EF" stroke-width="5"/>
        <line x1="0" y1="-55" x2="0" y2="55" stroke="#E5E7EF" stroke-width="5"/>
      </g>
      <g transform="translate(360 420)">
        <circle cx="0" cy="0" r="42" stroke="#E5E7EF" stroke-width="6"/>
        <line x1="-55" y1="0" x2="55" y2="0" stroke="#E5E7EF" stroke-width="5"/>
        <line x1="0" y1="-55" x2="0" y2="55" stroke="#E5E7EF" stroke-width="5"/>
      </g>
      <g transform="translate(940 420)">
        <circle cx="0" cy="0" r="42" stroke="#E5E7EF" stroke-width="6"/>
        <line x1="-55" y1="0" x2="55" y2="0" stroke="#E5E7EF" stroke-width="5"/>
        <line x1="0" y1="-55" x2="0" y2="55" stroke="#E5E7EF" stroke-width="5"/>
      </g>
    </g>

    <path d="M575 350L620 350L612 378H583L575 350Z" fill="#4A556A"/>
    <path d="M588 378H607L616 412H580L588 378Z" fill="#6B7386"/>
  </g>

  <defs>
    <radialGradient id="bodyGlow" cx="0" cy="0" r="1" gradientUnits="userSpaceOnUse" gradientTransform="translate(605 330) rotate(90) scale(120 280)">
      <stop stop-color="#FF00FF" stop-opacity="0.22"/>
      <stop offset="1" stop-color="#00FFFF" stop-opacity="0"/>
    </radialGradient>
  </defs>
</svg>
